<mxfile host="app.diagrams.net" agent="Mozilla/5.0 (Windows NT 10.0; Win64; x64) AppleWebKit/537.36 (KHTML, like Gecko) Chrome/129.0.0.0 Safari/537.36" version="24.7.17">
  <diagram name="Page-1" id="gfVgp-xblxkpz4bWR_F8">
    <mxGraphModel dx="2071" dy="946" grid="1" gridSize="10" guides="1" tooltips="1" connect="1" arrows="1" fold="1" page="1" pageScale="1" pageWidth="850" pageHeight="1100" math="0" shadow="0">
      <root>
        <mxCell id="0" />
        <mxCell id="1" parent="0" />
        <mxCell id="rq9TFHdFVjbuikQLJHlp-1" value="CLIENTE" style="rounded=0;whiteSpace=wrap;html=1;" parent="1" vertex="1">
          <mxGeometry x="-53" y="40" width="120" height="60" as="geometry" />
        </mxCell>
        <mxCell id="rq9TFHdFVjbuikQLJHlp-2" value="ARTICULO" style="rounded=0;whiteSpace=wrap;html=1;" parent="1" vertex="1">
          <mxGeometry x="427" y="40" width="120" height="60" as="geometry" />
        </mxCell>
        <mxCell id="rq9TFHdFVjbuikQLJHlp-3" value="PEDIDO" style="rounded=0;whiteSpace=wrap;html=1;" parent="1" vertex="1">
          <mxGeometry x="197" y="280" width="120" height="60" as="geometry" />
        </mxCell>
        <mxCell id="rq9TFHdFVjbuikQLJHlp-4" value="" style="endArrow=none;html=1;rounded=0;endFill=0;startArrow=oval;startFill=1;exitX=0;exitY=0;exitDx=0;exitDy=0;" parent="1" source="rq9TFHdFVjbuikQLJHlp-5" edge="1">
          <mxGeometry width="50" height="50" relative="1" as="geometry">
            <mxPoint x="-53" y="170" as="sourcePoint" />
            <mxPoint x="-53" y="100" as="targetPoint" />
          </mxGeometry>
        </mxCell>
        <mxCell id="rq9TFHdFVjbuikQLJHlp-5" value="id_cliente" style="text;html=1;align=left;verticalAlign=middle;whiteSpace=wrap;rounded=0;" parent="1" vertex="1">
          <mxGeometry x="-53" y="200" width="60" height="30" as="geometry" />
        </mxCell>
        <mxCell id="rq9TFHdFVjbuikQLJHlp-6" value="" style="endArrow=none;html=1;rounded=0;endFill=0;startArrow=open;startFill=0;exitX=0;exitY=0;exitDx=0;exitDy=0;" parent="1" edge="1">
          <mxGeometry width="50" height="50" relative="1" as="geometry">
            <mxPoint x="-43" y="174" as="sourcePoint" />
            <mxPoint x="-42" y="100" as="targetPoint" />
          </mxGeometry>
        </mxCell>
        <mxCell id="rq9TFHdFVjbuikQLJHlp-7" value="direccion_envio" style="text;html=1;align=left;verticalAlign=middle;whiteSpace=wrap;rounded=0;" parent="1" vertex="1">
          <mxGeometry x="-45" y="174" width="90" height="30" as="geometry" />
        </mxCell>
        <mxCell id="rq9TFHdFVjbuikQLJHlp-9" value="" style="endArrow=none;html=1;rounded=0;endFill=0;startArrow=oval;startFill=0;entryX=0.207;entryY=1.001;entryDx=0;entryDy=0;entryPerimeter=0;" parent="1" target="rq9TFHdFVjbuikQLJHlp-1" edge="1">
          <mxGeometry width="50" height="50" relative="1" as="geometry">
            <mxPoint x="-31" y="147" as="sourcePoint" />
            <mxPoint x="-32.360000000000014" y="117.39999999999998" as="targetPoint" />
          </mxGeometry>
        </mxCell>
        <mxCell id="rq9TFHdFVjbuikQLJHlp-10" value="saldo" style="text;html=1;align=left;verticalAlign=middle;whiteSpace=wrap;rounded=0;" parent="1" vertex="1">
          <mxGeometry x="-33" y="144" width="35" height="30" as="geometry" />
        </mxCell>
        <mxCell id="rq9TFHdFVjbuikQLJHlp-13" value="" style="endArrow=none;html=1;rounded=0;endFill=0;startArrow=oval;startFill=0;" parent="1" edge="1">
          <mxGeometry width="50" height="50" relative="1" as="geometry">
            <mxPoint x="-12" y="112" as="sourcePoint" />
            <mxPoint x="-12" y="100" as="targetPoint" />
          </mxGeometry>
        </mxCell>
        <mxCell id="rq9TFHdFVjbuikQLJHlp-14" value="descuento" style="text;html=1;align=left;verticalAlign=middle;whiteSpace=wrap;rounded=0;" parent="1" vertex="1">
          <mxGeometry x="-12" y="112" width="90" height="30" as="geometry" />
        </mxCell>
        <mxCell id="rq9TFHdFVjbuikQLJHlp-15" value="" style="endArrow=none;html=1;rounded=0;endFill=0;startArrow=oval;startFill=1;exitX=0;exitY=0;exitDx=0;exitDy=0;" parent="1" source="rq9TFHdFVjbuikQLJHlp-16" edge="1">
          <mxGeometry width="50" height="50" relative="1" as="geometry">
            <mxPoint x="431" y="130" as="sourcePoint" />
            <mxPoint x="437" y="100" as="targetPoint" />
          </mxGeometry>
        </mxCell>
        <mxCell id="rq9TFHdFVjbuikQLJHlp-16" value="id_articulo" style="text;html=1;align=left;verticalAlign=middle;whiteSpace=wrap;rounded=0;" parent="1" vertex="1">
          <mxGeometry x="431" y="160" width="60" height="30" as="geometry" />
        </mxCell>
        <mxCell id="rq9TFHdFVjbuikQLJHlp-17" value="" style="endArrow=none;html=1;rounded=0;endFill=0;startArrow=open;startFill=0;exitX=1;exitY=1;exitDx=0;exitDy=0;entryX=0.093;entryY=0.92;entryDx=0;entryDy=0;entryPerimeter=0;" parent="1" source="rq9TFHdFVjbuikQLJHlp-18" edge="1">
          <mxGeometry width="50" height="50" relative="1" as="geometry">
            <mxPoint x="657" y="134" as="sourcePoint" />
            <mxPoint x="658" y="55" as="targetPoint" />
          </mxGeometry>
        </mxCell>
        <mxCell id="rq9TFHdFVjbuikQLJHlp-18" value="distribucion" style="text;html=1;align=left;verticalAlign=middle;whiteSpace=wrap;rounded=0;" parent="1" vertex="1">
          <mxGeometry x="567" width="70" height="30" as="geometry" />
        </mxCell>
        <mxCell id="rq9TFHdFVjbuikQLJHlp-19" value="" style="endArrow=none;html=1;rounded=0;endFill=0;startArrow=oval;startFill=0;entryX=1;entryY=0;entryDx=0;entryDy=0;exitX=0.131;exitY=1.067;exitDx=0;exitDy=0;exitPerimeter=0;" parent="1" source="rq9TFHdFVjbuikQLJHlp-20" target="rq9TFHdFVjbuikQLJHlp-33" edge="1">
          <mxGeometry width="50" height="50" relative="1" as="geometry">
            <mxPoint x="707" y="134" as="sourcePoint" />
            <mxPoint x="708.2" y="83.77999999999997" as="targetPoint" />
          </mxGeometry>
        </mxCell>
        <mxCell id="rq9TFHdFVjbuikQLJHlp-20" value="existencia" style="text;html=1;align=left;verticalAlign=middle;whiteSpace=wrap;rounded=0;" parent="1" vertex="1">
          <mxGeometry x="693" width="67" height="30" as="geometry" />
        </mxCell>
        <mxCell id="rq9TFHdFVjbuikQLJHlp-21" value="" style="endArrow=none;html=1;rounded=0;endFill=0;startArrow=oval;startFill=0;" parent="1" edge="1">
          <mxGeometry width="50" height="50" relative="1" as="geometry">
            <mxPoint x="443" y="136" as="sourcePoint" />
            <mxPoint x="444" y="100" as="targetPoint" />
          </mxGeometry>
        </mxCell>
        <mxCell id="rq9TFHdFVjbuikQLJHlp-22" value="descripcion" style="text;html=1;align=left;verticalAlign=middle;whiteSpace=wrap;rounded=0;" parent="1" vertex="1">
          <mxGeometry x="440" y="134" width="67" height="30" as="geometry" />
        </mxCell>
        <mxCell id="rq9TFHdFVjbuikQLJHlp-27" value="FABRICA" style="rounded=0;whiteSpace=wrap;html=1;" parent="1" vertex="1">
          <mxGeometry x="784" y="40" width="120" height="60" as="geometry" />
        </mxCell>
        <mxCell id="rq9TFHdFVjbuikQLJHlp-28" value="" style="endArrow=none;html=1;rounded=0;endFill=0;startArrow=oval;startFill=0;" parent="1" edge="1">
          <mxGeometry width="50" height="50" relative="1" as="geometry">
            <mxPoint x="796" y="136" as="sourcePoint" />
            <mxPoint x="797" y="100" as="targetPoint" />
          </mxGeometry>
        </mxCell>
        <mxCell id="rq9TFHdFVjbuikQLJHlp-29" value="telefono" style="text;html=1;align=left;verticalAlign=middle;whiteSpace=wrap;rounded=0;" parent="1" vertex="1">
          <mxGeometry x="793" y="134" width="91" height="30" as="geometry" />
        </mxCell>
        <mxCell id="rq9TFHdFVjbuikQLJHlp-30" value="" style="endArrow=none;html=1;rounded=0;endFill=0;startArrow=oval;startFill=1;exitX=0;exitY=0;exitDx=0;exitDy=0;" parent="1" source="rq9TFHdFVjbuikQLJHlp-31" edge="1">
          <mxGeometry width="50" height="50" relative="1" as="geometry">
            <mxPoint x="784" y="130" as="sourcePoint" />
            <mxPoint x="784" y="60" as="targetPoint" />
          </mxGeometry>
        </mxCell>
        <mxCell id="rq9TFHdFVjbuikQLJHlp-31" value="id_fabrica" style="text;html=1;align=left;verticalAlign=middle;whiteSpace=wrap;rounded=0;" parent="1" vertex="1">
          <mxGeometry x="784" y="160" width="60" height="30" as="geometry" />
        </mxCell>
        <mxCell id="rq9TFHdFVjbuikQLJHlp-33" value="provee" style="rhombus;whiteSpace=wrap;html=1;" parent="1" vertex="1">
          <mxGeometry x="637" y="50" width="56" height="40" as="geometry" />
        </mxCell>
        <mxCell id="rq9TFHdFVjbuikQLJHlp-34" value="" style="endArrow=none;html=1;rounded=0;exitX=1;exitY=0.5;exitDx=0;exitDy=0;" parent="1" edge="1">
          <mxGeometry width="50" height="50" relative="1" as="geometry">
            <mxPoint x="547" y="70" as="sourcePoint" />
            <mxPoint x="637" y="69.5" as="targetPoint" />
          </mxGeometry>
        </mxCell>
        <mxCell id="rq9TFHdFVjbuikQLJHlp-35" value="" style="endArrow=none;html=1;rounded=0;exitX=1;exitY=0.5;exitDx=0;exitDy=0;" parent="1" edge="1">
          <mxGeometry width="50" height="50" relative="1" as="geometry">
            <mxPoint x="693" y="70" as="sourcePoint" />
            <mxPoint x="783" y="69.5" as="targetPoint" />
          </mxGeometry>
        </mxCell>
        <mxCell id="rq9TFHdFVjbuikQLJHlp-36" value="" style="endArrow=none;html=1;rounded=0;endFill=0;startArrow=oval;startFill=0;" parent="1" edge="1">
          <mxGeometry width="50" height="50" relative="1" as="geometry">
            <mxPoint x="239" y="356" as="sourcePoint" />
            <mxPoint x="237" y="340" as="targetPoint" />
          </mxGeometry>
        </mxCell>
        <mxCell id="rq9TFHdFVjbuikQLJHlp-37" value="fecha_pedido" style="text;html=1;align=left;verticalAlign=middle;whiteSpace=wrap;rounded=0;" parent="1" vertex="1">
          <mxGeometry x="235" y="358" width="91" height="30" as="geometry" />
        </mxCell>
        <mxCell id="rq9TFHdFVjbuikQLJHlp-43" value="" style="endArrow=none;html=1;rounded=0;exitX=0.393;exitY=-0.02;exitDx=0;exitDy=0;exitPerimeter=0;entryX=0.5;entryY=1;entryDx=0;entryDy=0;" parent="1" source="rq9TFHdFVjbuikQLJHlp-3" target="rq9TFHdFVjbuikQLJHlp-44" edge="1">
          <mxGeometry width="50" height="50" relative="1" as="geometry">
            <mxPoint x="344.79999999999995" y="300.78" as="sourcePoint" />
            <mxPoint x="344" y="230" as="targetPoint" />
          </mxGeometry>
        </mxCell>
        <mxCell id="rq9TFHdFVjbuikQLJHlp-44" value="realiza" style="rhombus;whiteSpace=wrap;html=1;" parent="1" vertex="1">
          <mxGeometry x="151" y="174" width="56" height="40" as="geometry" />
        </mxCell>
        <mxCell id="rq9TFHdFVjbuikQLJHlp-45" value="" style="endArrow=none;html=1;rounded=0;exitX=0.5;exitY=0;exitDx=0;exitDy=0;entryX=1;entryY=1;entryDx=0;entryDy=0;" parent="1" source="rq9TFHdFVjbuikQLJHlp-44" target="rq9TFHdFVjbuikQLJHlp-1" edge="1">
          <mxGeometry width="50" height="50" relative="1" as="geometry">
            <mxPoint x="164.79999999999995" y="158.77999999999997" as="sourcePoint" />
            <mxPoint x="164" y="88" as="targetPoint" />
          </mxGeometry>
        </mxCell>
        <mxCell id="rq9TFHdFVjbuikQLJHlp-46" value="" style="endArrow=none;html=1;rounded=0;endFill=0;startArrow=oval;startFill=0;exitX=0;exitY=0;exitDx=0;exitDy=0;entryX=0.1;entryY=1.021;entryDx=0;entryDy=0;entryPerimeter=0;" parent="1" source="rq9TFHdFVjbuikQLJHlp-47" target="rq9TFHdFVjbuikQLJHlp-3" edge="1">
          <mxGeometry width="50" height="50" relative="1" as="geometry">
            <mxPoint x="207" y="380" as="sourcePoint" />
            <mxPoint x="207" y="310" as="targetPoint" />
          </mxGeometry>
        </mxCell>
        <mxCell id="rq9TFHdFVjbuikQLJHlp-47" value="id_cliente" style="text;html=1;align=left;verticalAlign=middle;whiteSpace=wrap;rounded=0;" parent="1" vertex="1">
          <mxGeometry x="207" y="410" width="60" height="30" as="geometry" />
        </mxCell>
        <mxCell id="rq9TFHdFVjbuikQLJHlp-48" value="" style="endArrow=none;html=1;rounded=0;endFill=0;startArrow=oval;startFill=0;exitX=0;exitY=0;exitDx=0;exitDy=0;entryX=0.196;entryY=1.038;entryDx=0;entryDy=0;entryPerimeter=0;" parent="1" target="rq9TFHdFVjbuikQLJHlp-3" edge="1">
          <mxGeometry width="50" height="50" relative="1" as="geometry">
            <mxPoint x="219" y="382" as="sourcePoint" />
            <mxPoint x="220" y="308" as="targetPoint" />
          </mxGeometry>
        </mxCell>
        <mxCell id="rq9TFHdFVjbuikQLJHlp-49" value="direccion_envio" style="text;html=1;align=left;verticalAlign=middle;whiteSpace=wrap;rounded=0;" parent="1" vertex="1">
          <mxGeometry x="217" y="382" width="90" height="30" as="geometry" />
        </mxCell>
        <mxCell id="rq9TFHdFVjbuikQLJHlp-51" value="contiene" style="rhombus;whiteSpace=wrap;html=1;" parent="1" vertex="1">
          <mxGeometry x="307" y="174" width="56" height="40" as="geometry" />
        </mxCell>
        <mxCell id="rq9TFHdFVjbuikQLJHlp-52" value="" style="endArrow=none;html=1;rounded=0;exitX=0.66;exitY=0.027;exitDx=0;exitDy=0;exitPerimeter=0;entryX=0.5;entryY=1;entryDx=0;entryDy=0;" parent="1" source="rq9TFHdFVjbuikQLJHlp-3" target="rq9TFHdFVjbuikQLJHlp-51" edge="1">
          <mxGeometry width="50" height="50" relative="1" as="geometry">
            <mxPoint x="334" y="309" as="sourcePoint" />
            <mxPoint x="315" y="240" as="targetPoint" />
          </mxGeometry>
        </mxCell>
        <mxCell id="rq9TFHdFVjbuikQLJHlp-53" value="" style="endArrow=none;html=1;rounded=0;exitX=0.5;exitY=0;exitDx=0;exitDy=0;entryX=0;entryY=0.75;entryDx=0;entryDy=0;" parent="1" source="rq9TFHdFVjbuikQLJHlp-51" target="rq9TFHdFVjbuikQLJHlp-2" edge="1">
          <mxGeometry width="50" height="50" relative="1" as="geometry">
            <mxPoint x="315" y="200" as="sourcePoint" />
            <mxPoint x="257" y="110" as="targetPoint" />
          </mxGeometry>
        </mxCell>
        <mxCell id="rq9TFHdFVjbuikQLJHlp-54" value="" style="endArrow=none;html=1;rounded=0;endFill=0;startArrow=oval;startFill=0;entryX=0.25;entryY=1;entryDx=0;entryDy=0;" parent="1" edge="1">
          <mxGeometry width="50" height="50" relative="1" as="geometry">
            <mxPoint x="350" y="242" as="sourcePoint" />
            <mxPoint x="348" y="206" as="targetPoint" />
          </mxGeometry>
        </mxCell>
        <mxCell id="rq9TFHdFVjbuikQLJHlp-55" value="cantidad" style="text;html=1;align=left;verticalAlign=middle;whiteSpace=wrap;rounded=0;" parent="1" vertex="1">
          <mxGeometry x="347" y="240" width="91" height="30" as="geometry" />
        </mxCell>
        <mxCell id="rq9TFHdFVjbuikQLJHlp-56" value="" style="endArrow=none;html=1;rounded=0;endFill=0;startArrow=oval;startFill=0;" parent="1" edge="1">
          <mxGeometry width="50" height="50" relative="1" as="geometry">
            <mxPoint x="812" y="116" as="sourcePoint" />
            <mxPoint x="813" y="100" as="targetPoint" />
          </mxGeometry>
        </mxCell>
        <mxCell id="rq9TFHdFVjbuikQLJHlp-57" value="articulo_total" style="text;html=1;align=left;verticalAlign=middle;whiteSpace=wrap;rounded=0;" parent="1" vertex="1">
          <mxGeometry x="806" y="114" width="91" height="30" as="geometry" />
        </mxCell>
        <mxCell id="rq9TFHdFVjbuikQLJHlp-58" value="fabrica" style="text;html=1;align=left;verticalAlign=middle;whiteSpace=wrap;rounded=0;" parent="1" vertex="1">
          <mxGeometry x="465" y="113" width="67" height="30" as="geometry" />
        </mxCell>
        <mxCell id="rq9TFHdFVjbuikQLJHlp-59" value="" style="endArrow=none;html=1;rounded=0;endFill=0;startArrow=open;startFill=0;exitX=0;exitY=0;exitDx=0;exitDy=0;" parent="1" edge="1">
          <mxGeometry width="50" height="50" relative="1" as="geometry">
            <mxPoint x="457" y="134" as="sourcePoint" />
            <mxPoint x="458" y="100" as="targetPoint" />
          </mxGeometry>
        </mxCell>
        <mxCell id="rq9TFHdFVjbuikQLJHlp-60" value="" style="endArrow=none;html=1;rounded=0;endFill=0;startArrow=oval;startFill=1;exitX=0;exitY=0;exitDx=0;exitDy=0;" parent="1" source="rq9TFHdFVjbuikQLJHlp-61" edge="1">
          <mxGeometry width="50" height="50" relative="1" as="geometry">
            <mxPoint x="197" y="404" as="sourcePoint" />
            <mxPoint x="197" y="334" as="targetPoint" />
          </mxGeometry>
        </mxCell>
        <mxCell id="rq9TFHdFVjbuikQLJHlp-61" value="id_podido" style="text;html=1;align=left;verticalAlign=middle;whiteSpace=wrap;rounded=0;" parent="1" vertex="1">
          <mxGeometry x="197" y="434" width="60" height="30" as="geometry" />
        </mxCell>
        <mxCell id="rq9TFHdFVjbuikQLJHlp-62" value="(1,N)" style="text;html=1;align=center;verticalAlign=middle;whiteSpace=wrap;rounded=0;" parent="1" vertex="1">
          <mxGeometry x="159" y="250" width="60" height="30" as="geometry" />
        </mxCell>
        <mxCell id="rq9TFHdFVjbuikQLJHlp-63" value="(1,M)" style="text;html=1;align=center;verticalAlign=middle;whiteSpace=wrap;rounded=0;" parent="1" vertex="1">
          <mxGeometry x="24" y="97" width="60" height="30" as="geometry" />
        </mxCell>
        <mxCell id="rq9TFHdFVjbuikQLJHlp-64" value="M:N" style="text;html=1;align=center;verticalAlign=middle;whiteSpace=wrap;rounded=0;" parent="1" vertex="1">
          <mxGeometry x="102" y="179" width="60" height="30" as="geometry" />
        </mxCell>
        <mxCell id="rq9TFHdFVjbuikQLJHlp-65" value="(1,P)" style="text;html=1;align=center;verticalAlign=middle;whiteSpace=wrap;rounded=0;" parent="1" vertex="1">
          <mxGeometry x="390" y="97" width="60" height="30" as="geometry" />
        </mxCell>
        <mxCell id="rq9TFHdFVjbuikQLJHlp-66" value="(1,Q)" style="text;html=1;align=center;verticalAlign=middle;whiteSpace=wrap;rounded=0;" parent="1" vertex="1">
          <mxGeometry x="280" y="249" width="60" height="30" as="geometry" />
        </mxCell>
        <mxCell id="rq9TFHdFVjbuikQLJHlp-67" value="P:Q" style="text;html=1;align=center;verticalAlign=middle;whiteSpace=wrap;rounded=0;" parent="1" vertex="1">
          <mxGeometry x="347" y="187" width="60" height="30" as="geometry" />
        </mxCell>
        <mxCell id="rq9TFHdFVjbuikQLJHlp-68" value="(1,R)" style="text;html=1;align=center;verticalAlign=middle;whiteSpace=wrap;rounded=0;" parent="1" vertex="1">
          <mxGeometry x="768" y="12" width="60" height="30" as="geometry" />
        </mxCell>
        <mxCell id="rq9TFHdFVjbuikQLJHlp-69" value="(1,S)" style="text;html=1;align=center;verticalAlign=middle;whiteSpace=wrap;rounded=0;" parent="1" vertex="1">
          <mxGeometry x="503" y="12" width="60" height="30" as="geometry" />
        </mxCell>
        <mxCell id="rq9TFHdFVjbuikQLJHlp-70" value="S:R" style="text;html=1;align=center;verticalAlign=middle;whiteSpace=wrap;rounded=0;" parent="1" vertex="1">
          <mxGeometry x="637" y="21" width="60" height="30" as="geometry" />
        </mxCell>
        <mxCell id="rq9TFHdFVjbuikQLJHlp-71" value="numero" style="text;html=1;align=left;verticalAlign=middle;whiteSpace=wrap;rounded=0;" parent="1" vertex="1">
          <mxGeometry x="337" y="390" width="90" height="30" as="geometry" />
        </mxCell>
        <mxCell id="rq9TFHdFVjbuikQLJHlp-72" value="calle" style="text;html=1;align=left;verticalAlign=middle;whiteSpace=wrap;rounded=0;" parent="1" vertex="1">
          <mxGeometry x="337" y="420" width="90" height="30" as="geometry" />
        </mxCell>
        <mxCell id="rq9TFHdFVjbuikQLJHlp-73" value="pueblo" style="text;html=1;align=left;verticalAlign=middle;whiteSpace=wrap;rounded=0;" parent="1" vertex="1">
          <mxGeometry x="338" y="451" width="90" height="30" as="geometry" />
        </mxCell>
        <mxCell id="rq9TFHdFVjbuikQLJHlp-74" value="ciudad" style="text;html=1;align=left;verticalAlign=middle;whiteSpace=wrap;rounded=0;" parent="1" vertex="1">
          <mxGeometry x="338" y="485" width="90" height="30" as="geometry" />
        </mxCell>
        <mxCell id="rq9TFHdFVjbuikQLJHlp-75" value="" style="endArrow=none;html=1;rounded=0;endFill=0;startArrow=oval;startFill=0;exitX=-0.078;exitY=0.525;exitDx=0;exitDy=0;entryX=0.196;entryY=1.038;entryDx=0;entryDy=0;entryPerimeter=0;exitPerimeter=0;" parent="1" source="rq9TFHdFVjbuikQLJHlp-74" edge="1">
          <mxGeometry width="50" height="50" relative="1" as="geometry">
            <mxPoint x="306" y="442" as="sourcePoint" />
            <mxPoint x="308" y="402" as="targetPoint" />
          </mxGeometry>
        </mxCell>
        <mxCell id="rq9TFHdFVjbuikQLJHlp-76" value="" style="endArrow=none;html=1;rounded=0;endFill=0;startArrow=oval;startFill=0;entryX=1;entryY=0.75;entryDx=0;entryDy=0;" parent="1" target="rq9TFHdFVjbuikQLJHlp-49" edge="1">
          <mxGeometry width="50" height="50" relative="1" as="geometry">
            <mxPoint x="337" y="470" as="sourcePoint" />
            <mxPoint x="318" y="412" as="targetPoint" />
          </mxGeometry>
        </mxCell>
        <mxCell id="rq9TFHdFVjbuikQLJHlp-77" value="" style="endArrow=none;html=1;rounded=0;endFill=0;startArrow=oval;startFill=0;entryX=1;entryY=0.5;entryDx=0;entryDy=0;exitX=-0.078;exitY=0.492;exitDx=0;exitDy=0;exitPerimeter=0;" parent="1" source="rq9TFHdFVjbuikQLJHlp-72" target="rq9TFHdFVjbuikQLJHlp-49" edge="1">
          <mxGeometry width="50" height="50" relative="1" as="geometry">
            <mxPoint x="347" y="480" as="sourcePoint" />
            <mxPoint x="317" y="415" as="targetPoint" />
          </mxGeometry>
        </mxCell>
        <mxCell id="rq9TFHdFVjbuikQLJHlp-78" value="" style="endArrow=none;html=1;rounded=0;endFill=0;startArrow=oval;startFill=0;entryX=1;entryY=0.25;entryDx=0;entryDy=0;exitX=0;exitY=0.5;exitDx=0;exitDy=0;" parent="1" source="rq9TFHdFVjbuikQLJHlp-71" target="rq9TFHdFVjbuikQLJHlp-49" edge="1">
          <mxGeometry width="50" height="50" relative="1" as="geometry">
            <mxPoint x="340" y="445" as="sourcePoint" />
            <mxPoint x="317" y="407" as="targetPoint" />
          </mxGeometry>
        </mxCell>
        <mxCell id="e3sJy9M_6KCMKYdhzqyE-1" value="CLIENTE" style="rounded=0;whiteSpace=wrap;html=1;" vertex="1" parent="1">
          <mxGeometry x="-220" y="690" width="120" height="60" as="geometry" />
        </mxCell>
        <mxCell id="e3sJy9M_6KCMKYdhzqyE-2" value="ARTICULO" style="rounded=0;whiteSpace=wrap;html=1;" vertex="1" parent="1">
          <mxGeometry x="430" y="660" width="120" height="60" as="geometry" />
        </mxCell>
        <mxCell id="e3sJy9M_6KCMKYdhzqyE-70" style="rounded=0;orthogonalLoop=1;jettySize=auto;html=1;exitX=0.5;exitY=0;exitDx=0;exitDy=0;entryX=0.5;entryY=1;entryDx=0;entryDy=0;endArrow=none;endFill=0;" edge="1" parent="1" source="e3sJy9M_6KCMKYdhzqyE-3" target="e3sJy9M_6KCMKYdhzqyE-67">
          <mxGeometry relative="1" as="geometry" />
        </mxCell>
        <mxCell id="e3sJy9M_6KCMKYdhzqyE-3" value="PEDIDO" style="rounded=0;whiteSpace=wrap;html=1;" vertex="1" parent="1">
          <mxGeometry x="200" y="900" width="120" height="60" as="geometry" />
        </mxCell>
        <mxCell id="e3sJy9M_6KCMKYdhzqyE-4" value="" style="endArrow=none;html=1;rounded=0;endFill=0;startArrow=oval;startFill=1;exitX=0;exitY=0;exitDx=0;exitDy=0;" edge="1" parent="1" source="e3sJy9M_6KCMKYdhzqyE-5">
          <mxGeometry width="50" height="50" relative="1" as="geometry">
            <mxPoint x="-220" y="820" as="sourcePoint" />
            <mxPoint x="-220" y="750" as="targetPoint" />
          </mxGeometry>
        </mxCell>
        <mxCell id="e3sJy9M_6KCMKYdhzqyE-5" value="numero_cliente" style="text;html=1;align=left;verticalAlign=middle;whiteSpace=wrap;rounded=0;" vertex="1" parent="1">
          <mxGeometry x="-220" y="850" width="60" height="30" as="geometry" />
        </mxCell>
        <mxCell id="e3sJy9M_6KCMKYdhzqyE-8" value="" style="endArrow=none;html=1;rounded=0;endFill=0;startArrow=oval;startFill=0;entryX=0.207;entryY=1.001;entryDx=0;entryDy=0;entryPerimeter=0;exitX=0.25;exitY=0;exitDx=0;exitDy=0;" edge="1" parent="1" target="e3sJy9M_6KCMKYdhzqyE-1" source="e3sJy9M_6KCMKYdhzqyE-9">
          <mxGeometry width="50" height="50" relative="1" as="geometry">
            <mxPoint x="-198" y="797" as="sourcePoint" />
            <mxPoint x="-199.36" y="767.4" as="targetPoint" />
          </mxGeometry>
        </mxCell>
        <mxCell id="e3sJy9M_6KCMKYdhzqyE-9" value="saldo" style="text;html=1;align=left;verticalAlign=middle;whiteSpace=wrap;rounded=0;" vertex="1" parent="1">
          <mxGeometry x="-204" y="807" width="35" height="30" as="geometry" />
        </mxCell>
        <mxCell id="e3sJy9M_6KCMKYdhzqyE-10" value="" style="endArrow=none;html=1;rounded=0;endFill=0;startArrow=oval;startFill=0;" edge="1" parent="1">
          <mxGeometry width="50" height="50" relative="1" as="geometry">
            <mxPoint x="-179" y="762" as="sourcePoint" />
            <mxPoint x="-179" y="750" as="targetPoint" />
          </mxGeometry>
        </mxCell>
        <mxCell id="e3sJy9M_6KCMKYdhzqyE-11" value="descuento" style="text;html=1;align=left;verticalAlign=middle;whiteSpace=wrap;rounded=0;" vertex="1" parent="1">
          <mxGeometry x="-179" y="762" width="90" height="30" as="geometry" />
        </mxCell>
        <mxCell id="e3sJy9M_6KCMKYdhzqyE-12" value="" style="endArrow=none;html=1;rounded=0;endFill=0;startArrow=oval;startFill=1;exitX=0;exitY=0;exitDx=0;exitDy=0;" edge="1" parent="1" source="e3sJy9M_6KCMKYdhzqyE-13">
          <mxGeometry width="50" height="50" relative="1" as="geometry">
            <mxPoint x="434" y="750" as="sourcePoint" />
            <mxPoint x="440" y="720" as="targetPoint" />
          </mxGeometry>
        </mxCell>
        <mxCell id="e3sJy9M_6KCMKYdhzqyE-13" value="numero_articulo" style="text;html=1;align=left;verticalAlign=middle;whiteSpace=wrap;rounded=0;" vertex="1" parent="1">
          <mxGeometry x="443.5" y="780" width="60" height="30" as="geometry" />
        </mxCell>
        <mxCell id="e3sJy9M_6KCMKYdhzqyE-16" value="" style="endArrow=none;html=1;rounded=0;endFill=0;startArrow=oval;startFill=0;entryX=1;entryY=0;entryDx=0;entryDy=0;exitX=0.131;exitY=1.067;exitDx=0;exitDy=0;exitPerimeter=0;" edge="1" parent="1" source="e3sJy9M_6KCMKYdhzqyE-17" target="e3sJy9M_6KCMKYdhzqyE-25">
          <mxGeometry width="50" height="50" relative="1" as="geometry">
            <mxPoint x="710" y="754" as="sourcePoint" />
            <mxPoint x="711.2" y="703.78" as="targetPoint" />
          </mxGeometry>
        </mxCell>
        <mxCell id="e3sJy9M_6KCMKYdhzqyE-17" value="existencia" style="text;html=1;align=left;verticalAlign=middle;whiteSpace=wrap;rounded=0;" vertex="1" parent="1">
          <mxGeometry x="704" y="611" width="67" height="30" as="geometry" />
        </mxCell>
        <mxCell id="e3sJy9M_6KCMKYdhzqyE-18" value="" style="endArrow=none;html=1;rounded=0;endFill=0;startArrow=oval;startFill=0;exitX=0;exitY=0.5;exitDx=0;exitDy=0;" edge="1" parent="1" source="e3sJy9M_6KCMKYdhzqyE-19">
          <mxGeometry width="50" height="50" relative="1" as="geometry">
            <mxPoint x="446" y="756" as="sourcePoint" />
            <mxPoint x="447" y="720" as="targetPoint" />
          </mxGeometry>
        </mxCell>
        <mxCell id="e3sJy9M_6KCMKYdhzqyE-19" value="descripcion" style="text;html=1;align=center;verticalAlign=middle;whiteSpace=wrap;rounded=0;" vertex="1" parent="1">
          <mxGeometry x="465" y="750" width="75" height="30" as="geometry" />
        </mxCell>
        <mxCell id="e3sJy9M_6KCMKYdhzqyE-20" value="FABRICA" style="rounded=0;whiteSpace=wrap;html=1;" vertex="1" parent="1">
          <mxGeometry x="787" y="660" width="120" height="60" as="geometry" />
        </mxCell>
        <mxCell id="e3sJy9M_6KCMKYdhzqyE-21" value="" style="endArrow=none;html=1;rounded=0;endFill=0;startArrow=oval;startFill=0;" edge="1" parent="1">
          <mxGeometry width="50" height="50" relative="1" as="geometry">
            <mxPoint x="799" y="756" as="sourcePoint" />
            <mxPoint x="800" y="720" as="targetPoint" />
          </mxGeometry>
        </mxCell>
        <mxCell id="e3sJy9M_6KCMKYdhzqyE-22" value="telefono" style="text;html=1;align=left;verticalAlign=middle;whiteSpace=wrap;rounded=0;" vertex="1" parent="1">
          <mxGeometry x="796" y="754" width="91" height="30" as="geometry" />
        </mxCell>
        <mxCell id="e3sJy9M_6KCMKYdhzqyE-23" value="" style="endArrow=none;html=1;rounded=0;endFill=0;startArrow=oval;startFill=1;exitX=0;exitY=0;exitDx=0;exitDy=0;" edge="1" parent="1" source="e3sJy9M_6KCMKYdhzqyE-24">
          <mxGeometry width="50" height="50" relative="1" as="geometry">
            <mxPoint x="787" y="750" as="sourcePoint" />
            <mxPoint x="787" y="680" as="targetPoint" />
          </mxGeometry>
        </mxCell>
        <mxCell id="e3sJy9M_6KCMKYdhzqyE-24" value="id_fabrica" style="text;html=1;align=left;verticalAlign=middle;whiteSpace=wrap;rounded=0;" vertex="1" parent="1">
          <mxGeometry x="787" y="780" width="60" height="30" as="geometry" />
        </mxCell>
        <mxCell id="e3sJy9M_6KCMKYdhzqyE-66" style="rounded=0;orthogonalLoop=1;jettySize=auto;html=1;exitX=1;exitY=1;exitDx=0;exitDy=0;entryX=0.5;entryY=0;entryDx=0;entryDy=0;endArrow=oval;endFill=0;" edge="1" parent="1" source="e3sJy9M_6KCMKYdhzqyE-25" target="e3sJy9M_6KCMKYdhzqyE-43">
          <mxGeometry relative="1" as="geometry" />
        </mxCell>
        <mxCell id="e3sJy9M_6KCMKYdhzqyE-25" value="distribuye" style="rhombus;whiteSpace=wrap;html=1;" vertex="1" parent="1">
          <mxGeometry x="640" y="670" width="56" height="40" as="geometry" />
        </mxCell>
        <mxCell id="e3sJy9M_6KCMKYdhzqyE-26" value="" style="endArrow=none;html=1;rounded=0;exitX=1;exitY=0.5;exitDx=0;exitDy=0;" edge="1" parent="1">
          <mxGeometry width="50" height="50" relative="1" as="geometry">
            <mxPoint x="550" y="690" as="sourcePoint" />
            <mxPoint x="640" y="689.5" as="targetPoint" />
          </mxGeometry>
        </mxCell>
        <mxCell id="e3sJy9M_6KCMKYdhzqyE-27" value="" style="endArrow=none;html=1;rounded=0;exitX=1;exitY=0.5;exitDx=0;exitDy=0;" edge="1" parent="1">
          <mxGeometry width="50" height="50" relative="1" as="geometry">
            <mxPoint x="696" y="690" as="sourcePoint" />
            <mxPoint x="786" y="689.5" as="targetPoint" />
          </mxGeometry>
        </mxCell>
        <mxCell id="e3sJy9M_6KCMKYdhzqyE-28" value="" style="endArrow=none;html=1;rounded=0;endFill=0;startArrow=oval;startFill=0;" edge="1" parent="1">
          <mxGeometry width="50" height="50" relative="1" as="geometry">
            <mxPoint x="242" y="976" as="sourcePoint" />
            <mxPoint x="240" y="960" as="targetPoint" />
          </mxGeometry>
        </mxCell>
        <mxCell id="e3sJy9M_6KCMKYdhzqyE-29" value="fecha_pedido" style="text;html=1;align=left;verticalAlign=middle;whiteSpace=wrap;rounded=0;" vertex="1" parent="1">
          <mxGeometry x="238" y="978" width="91" height="30" as="geometry" />
        </mxCell>
        <mxCell id="e3sJy9M_6KCMKYdhzqyE-30" value="" style="endArrow=none;html=1;rounded=0;exitX=0.25;exitY=0;exitDx=0;exitDy=0;entryX=0.5;entryY=1;entryDx=0;entryDy=0;" edge="1" parent="1" source="e3sJy9M_6KCMKYdhzqyE-3" target="e3sJy9M_6KCMKYdhzqyE-31">
          <mxGeometry width="50" height="50" relative="1" as="geometry">
            <mxPoint x="347.79999999999995" y="920.78" as="sourcePoint" />
            <mxPoint x="347" y="850" as="targetPoint" />
          </mxGeometry>
        </mxCell>
        <mxCell id="e3sJy9M_6KCMKYdhzqyE-31" value="realiza" style="rhombus;whiteSpace=wrap;html=1;" vertex="1" parent="1">
          <mxGeometry x="11" y="820" width="56" height="40" as="geometry" />
        </mxCell>
        <mxCell id="e3sJy9M_6KCMKYdhzqyE-32" value="" style="endArrow=none;html=1;rounded=0;exitX=0.5;exitY=0;exitDx=0;exitDy=0;entryX=1;entryY=1;entryDx=0;entryDy=0;" edge="1" parent="1" source="e3sJy9M_6KCMKYdhzqyE-31" target="e3sJy9M_6KCMKYdhzqyE-1">
          <mxGeometry width="50" height="50" relative="1" as="geometry">
            <mxPoint x="167.79999999999995" y="778.78" as="sourcePoint" />
            <mxPoint x="167" y="708" as="targetPoint" />
          </mxGeometry>
        </mxCell>
        <mxCell id="e3sJy9M_6KCMKYdhzqyE-37" value="contiene" style="rhombus;whiteSpace=wrap;html=1;" vertex="1" parent="1">
          <mxGeometry x="310" y="794" width="56" height="40" as="geometry" />
        </mxCell>
        <mxCell id="e3sJy9M_6KCMKYdhzqyE-38" value="" style="endArrow=none;html=1;rounded=0;exitX=0.75;exitY=0;exitDx=0;exitDy=0;entryX=0.5;entryY=1;entryDx=0;entryDy=0;" edge="1" parent="1" source="e3sJy9M_6KCMKYdhzqyE-3" target="e3sJy9M_6KCMKYdhzqyE-37">
          <mxGeometry width="50" height="50" relative="1" as="geometry">
            <mxPoint x="337" y="929" as="sourcePoint" />
            <mxPoint x="318" y="860" as="targetPoint" />
          </mxGeometry>
        </mxCell>
        <mxCell id="e3sJy9M_6KCMKYdhzqyE-39" value="" style="endArrow=none;html=1;rounded=0;exitX=0.5;exitY=0;exitDx=0;exitDy=0;entryX=0;entryY=0.75;entryDx=0;entryDy=0;" edge="1" parent="1" source="e3sJy9M_6KCMKYdhzqyE-37" target="e3sJy9M_6KCMKYdhzqyE-2">
          <mxGeometry width="50" height="50" relative="1" as="geometry">
            <mxPoint x="318" y="820" as="sourcePoint" />
            <mxPoint x="260" y="730" as="targetPoint" />
          </mxGeometry>
        </mxCell>
        <mxCell id="e3sJy9M_6KCMKYdhzqyE-40" value="" style="endArrow=none;html=1;rounded=0;endFill=0;startArrow=oval;startFill=0;entryX=0.25;entryY=1;entryDx=0;entryDy=0;" edge="1" parent="1">
          <mxGeometry width="50" height="50" relative="1" as="geometry">
            <mxPoint x="353" y="862" as="sourcePoint" />
            <mxPoint x="351" y="826" as="targetPoint" />
          </mxGeometry>
        </mxCell>
        <mxCell id="e3sJy9M_6KCMKYdhzqyE-41" value="cantidad" style="text;html=1;align=left;verticalAlign=middle;whiteSpace=wrap;rounded=0;" vertex="1" parent="1">
          <mxGeometry x="350" y="860" width="91" height="30" as="geometry" />
        </mxCell>
        <mxCell id="e3sJy9M_6KCMKYdhzqyE-43" value="articulo_total" style="text;html=1;align=left;verticalAlign=middle;whiteSpace=wrap;rounded=0;" vertex="1" parent="1">
          <mxGeometry x="650" y="732" width="91" height="30" as="geometry" />
        </mxCell>
        <mxCell id="e3sJy9M_6KCMKYdhzqyE-46" value="" style="endArrow=none;html=1;rounded=0;endFill=0;startArrow=oval;startFill=1;exitX=0;exitY=0;exitDx=0;exitDy=0;" edge="1" parent="1" source="e3sJy9M_6KCMKYdhzqyE-47">
          <mxGeometry width="50" height="50" relative="1" as="geometry">
            <mxPoint x="200" y="1024" as="sourcePoint" />
            <mxPoint x="200" y="954" as="targetPoint" />
          </mxGeometry>
        </mxCell>
        <mxCell id="e3sJy9M_6KCMKYdhzqyE-47" value="id_pedido" style="text;html=1;align=left;verticalAlign=middle;whiteSpace=wrap;rounded=0;" vertex="1" parent="1">
          <mxGeometry x="200" y="1010" width="60" height="30" as="geometry" />
        </mxCell>
        <mxCell id="e3sJy9M_6KCMKYdhzqyE-48" value="(1,N)" style="text;html=1;align=center;verticalAlign=middle;whiteSpace=wrap;rounded=0;" vertex="1" parent="1">
          <mxGeometry x="151" y="890" width="60" height="30" as="geometry" />
        </mxCell>
        <mxCell id="e3sJy9M_6KCMKYdhzqyE-49" value="(1,1)" style="text;html=1;align=center;verticalAlign=middle;whiteSpace=wrap;rounded=0;" vertex="1" parent="1">
          <mxGeometry x="-143" y="747" width="60" height="30" as="geometry" />
        </mxCell>
        <mxCell id="e3sJy9M_6KCMKYdhzqyE-50" value="1:N" style="text;html=1;align=center;verticalAlign=middle;whiteSpace=wrap;rounded=0;" vertex="1" parent="1">
          <mxGeometry x="-43" y="820" width="53" height="30" as="geometry" />
        </mxCell>
        <mxCell id="e3sJy9M_6KCMKYdhzqyE-51" value="(1,M)" style="text;html=1;align=center;verticalAlign=middle;whiteSpace=wrap;rounded=0;" vertex="1" parent="1">
          <mxGeometry x="393" y="717" width="60" height="30" as="geometry" />
        </mxCell>
        <mxCell id="e3sJy9M_6KCMKYdhzqyE-52" value="(1,N)" style="text;html=1;align=center;verticalAlign=middle;whiteSpace=wrap;rounded=0;" vertex="1" parent="1">
          <mxGeometry x="314" y="889" width="60" height="30" as="geometry" />
        </mxCell>
        <mxCell id="e3sJy9M_6KCMKYdhzqyE-53" value="N:M" style="text;html=1;align=center;verticalAlign=middle;whiteSpace=wrap;rounded=0;" vertex="1" parent="1">
          <mxGeometry x="350" y="807" width="60" height="30" as="geometry" />
        </mxCell>
        <mxCell id="e3sJy9M_6KCMKYdhzqyE-54" value="(1,M)" style="text;html=1;align=center;verticalAlign=middle;whiteSpace=wrap;rounded=0;" vertex="1" parent="1">
          <mxGeometry x="771" y="632" width="60" height="30" as="geometry" />
        </mxCell>
        <mxCell id="e3sJy9M_6KCMKYdhzqyE-55" value="(1,N)" style="text;html=1;align=center;verticalAlign=middle;whiteSpace=wrap;rounded=0;" vertex="1" parent="1">
          <mxGeometry x="506" y="632" width="60" height="30" as="geometry" />
        </mxCell>
        <mxCell id="e3sJy9M_6KCMKYdhzqyE-56" value="N:M" style="text;html=1;align=center;verticalAlign=middle;whiteSpace=wrap;rounded=0;" vertex="1" parent="1">
          <mxGeometry x="638" y="632" width="60" height="30" as="geometry" />
        </mxCell>
        <mxCell id="e3sJy9M_6KCMKYdhzqyE-72" style="edgeStyle=orthogonalEdgeStyle;rounded=0;orthogonalLoop=1;jettySize=auto;html=1;exitX=0;exitY=0;exitDx=0;exitDy=0;endArrow=oval;endFill=1;" edge="1" parent="1" source="e3sJy9M_6KCMKYdhzqyE-65" target="e3sJy9M_6KCMKYdhzqyE-73">
          <mxGeometry relative="1" as="geometry">
            <mxPoint x="97" y="580" as="targetPoint" />
          </mxGeometry>
        </mxCell>
        <mxCell id="e3sJy9M_6KCMKYdhzqyE-78" style="edgeStyle=orthogonalEdgeStyle;rounded=0;orthogonalLoop=1;jettySize=auto;html=1;exitX=0.25;exitY=0;exitDx=0;exitDy=0;endArrow=oval;endFill=0;" edge="1" parent="1" source="e3sJy9M_6KCMKYdhzqyE-65" target="e3sJy9M_6KCMKYdhzqyE-79">
          <mxGeometry relative="1" as="geometry">
            <mxPoint x="127" y="550" as="targetPoint" />
          </mxGeometry>
        </mxCell>
        <mxCell id="e3sJy9M_6KCMKYdhzqyE-80" style="edgeStyle=orthogonalEdgeStyle;rounded=0;orthogonalLoop=1;jettySize=auto;html=1;exitX=0.5;exitY=0;exitDx=0;exitDy=0;endArrow=oval;endFill=0;" edge="1" parent="1" source="e3sJy9M_6KCMKYdhzqyE-65" target="e3sJy9M_6KCMKYdhzqyE-81">
          <mxGeometry relative="1" as="geometry">
            <mxPoint x="157" y="590" as="targetPoint" />
          </mxGeometry>
        </mxCell>
        <mxCell id="e3sJy9M_6KCMKYdhzqyE-82" style="edgeStyle=orthogonalEdgeStyle;rounded=0;orthogonalLoop=1;jettySize=auto;html=1;exitX=0.75;exitY=0;exitDx=0;exitDy=0;endArrow=oval;endFill=0;" edge="1" parent="1" source="e3sJy9M_6KCMKYdhzqyE-65" target="e3sJy9M_6KCMKYdhzqyE-83">
          <mxGeometry relative="1" as="geometry">
            <mxPoint x="187" y="560" as="targetPoint" />
          </mxGeometry>
        </mxCell>
        <mxCell id="e3sJy9M_6KCMKYdhzqyE-84" style="edgeStyle=orthogonalEdgeStyle;rounded=0;orthogonalLoop=1;jettySize=auto;html=1;exitX=1;exitY=0;exitDx=0;exitDy=0;endArrow=oval;endFill=0;" edge="1" parent="1" source="e3sJy9M_6KCMKYdhzqyE-65" target="e3sJy9M_6KCMKYdhzqyE-85">
          <mxGeometry relative="1" as="geometry">
            <mxPoint x="217" y="610" as="targetPoint" />
          </mxGeometry>
        </mxCell>
        <mxCell id="e3sJy9M_6KCMKYdhzqyE-87" style="rounded=0;orthogonalLoop=1;jettySize=auto;html=1;exitX=0;exitY=0.5;exitDx=0;exitDy=0;entryX=1;entryY=0.5;entryDx=0;entryDy=0;endArrow=none;endFill=0;" edge="1" parent="1" source="e3sJy9M_6KCMKYdhzqyE-65" target="e3sJy9M_6KCMKYdhzqyE-86">
          <mxGeometry relative="1" as="geometry" />
        </mxCell>
        <mxCell id="e3sJy9M_6KCMKYdhzqyE-65" value="DIRECCION" style="rounded=0;whiteSpace=wrap;html=1;" vertex="1" parent="1">
          <mxGeometry x="97" y="641" width="120" height="60" as="geometry" />
        </mxCell>
        <mxCell id="e3sJy9M_6KCMKYdhzqyE-71" style="rounded=0;orthogonalLoop=1;jettySize=auto;html=1;exitX=0.5;exitY=0;exitDx=0;exitDy=0;entryX=0.5;entryY=1;entryDx=0;entryDy=0;endArrow=none;endFill=0;" edge="1" parent="1" source="e3sJy9M_6KCMKYdhzqyE-67" target="e3sJy9M_6KCMKYdhzqyE-65">
          <mxGeometry relative="1" as="geometry" />
        </mxCell>
        <mxCell id="e3sJy9M_6KCMKYdhzqyE-67" value="envia" style="rhombus;whiteSpace=wrap;html=1;" vertex="1" parent="1">
          <mxGeometry x="161" y="754" width="56" height="40" as="geometry" />
        </mxCell>
        <mxCell id="e3sJy9M_6KCMKYdhzqyE-73" value="ID" style="text;html=1;align=center;verticalAlign=middle;whiteSpace=wrap;rounded=0;" vertex="1" parent="1">
          <mxGeometry x="67" y="565" width="60" height="30" as="geometry" />
        </mxCell>
        <mxCell id="e3sJy9M_6KCMKYdhzqyE-79" value="numero" style="text;html=1;align=center;verticalAlign=middle;whiteSpace=wrap;rounded=0;" vertex="1" parent="1">
          <mxGeometry x="97" y="535" width="60" height="30" as="geometry" />
        </mxCell>
        <mxCell id="e3sJy9M_6KCMKYdhzqyE-81" value="calle" style="text;html=1;align=center;verticalAlign=middle;whiteSpace=wrap;rounded=0;" vertex="1" parent="1">
          <mxGeometry x="127" y="575" width="60" height="30" as="geometry" />
        </mxCell>
        <mxCell id="e3sJy9M_6KCMKYdhzqyE-83" value="pueblo" style="text;html=1;align=center;verticalAlign=middle;whiteSpace=wrap;rounded=0;" vertex="1" parent="1">
          <mxGeometry x="157" y="545" width="60" height="30" as="geometry" />
        </mxCell>
        <mxCell id="e3sJy9M_6KCMKYdhzqyE-85" value="ciudad" style="text;html=1;align=center;verticalAlign=middle;whiteSpace=wrap;rounded=0;" vertex="1" parent="1">
          <mxGeometry x="187" y="575" width="60" height="30" as="geometry" />
        </mxCell>
        <mxCell id="e3sJy9M_6KCMKYdhzqyE-88" style="rounded=0;orthogonalLoop=1;jettySize=auto;html=1;exitX=0;exitY=0.5;exitDx=0;exitDy=0;entryX=1;entryY=0.5;entryDx=0;entryDy=0;endArrow=none;endFill=0;" edge="1" parent="1" source="e3sJy9M_6KCMKYdhzqyE-86" target="e3sJy9M_6KCMKYdhzqyE-1">
          <mxGeometry relative="1" as="geometry" />
        </mxCell>
        <mxCell id="e3sJy9M_6KCMKYdhzqyE-86" value="tiene" style="rhombus;whiteSpace=wrap;html=1;" vertex="1" parent="1">
          <mxGeometry x="-21" y="662" width="56" height="40" as="geometry" />
        </mxCell>
        <mxCell id="e3sJy9M_6KCMKYdhzqyE-92" value="(1,M)" style="text;html=1;align=center;verticalAlign=middle;whiteSpace=wrap;rounded=0;" vertex="1" parent="1">
          <mxGeometry x="197" y="868" width="60" height="30" as="geometry" />
        </mxCell>
        <mxCell id="e3sJy9M_6KCMKYdhzqyE-94" value="(1,1)" style="text;html=1;align=center;verticalAlign=middle;whiteSpace=wrap;rounded=0;" vertex="1" parent="1">
          <mxGeometry x="107" y="699" width="60" height="30" as="geometry" />
        </mxCell>
        <mxCell id="e3sJy9M_6KCMKYdhzqyE-95" value="1:M" style="text;html=1;align=center;verticalAlign=middle;whiteSpace=wrap;rounded=0;" vertex="1" parent="1">
          <mxGeometry x="108" y="759" width="60" height="30" as="geometry" />
        </mxCell>
        <mxCell id="e3sJy9M_6KCMKYdhzqyE-96" value="(1,M)" style="text;html=1;align=center;verticalAlign=middle;whiteSpace=wrap;rounded=0;" vertex="1" parent="1">
          <mxGeometry x="47" y="631" width="60" height="30" as="geometry" />
        </mxCell>
        <mxCell id="e3sJy9M_6KCMKYdhzqyE-97" value="(1,N)" style="text;html=1;align=center;verticalAlign=middle;whiteSpace=wrap;rounded=0;" vertex="1" parent="1">
          <mxGeometry x="-142" y="660" width="60" height="30" as="geometry" />
        </mxCell>
        <mxCell id="e3sJy9M_6KCMKYdhzqyE-98" value="N:M" style="text;html=1;align=center;verticalAlign=middle;whiteSpace=wrap;rounded=0;" vertex="1" parent="1">
          <mxGeometry x="-45" y="638" width="60" height="30" as="geometry" />
        </mxCell>
      </root>
    </mxGraphModel>
  </diagram>
</mxfile>
